<svg width="1158" height="956" viewBox="100 0 1158 956" fill="none" xmlns="http://www.w3.org/2000/svg">
<g clip-path="url(#clip0_21_23)">
<path d="M890.059 634.436C1038.04 634.436 1158 514.475 1158 366.495C1158 218.515 1038.04 98.5534 890.059 98.5534C742.079 98.5534 622.117 218.515 622.117 366.495C622.117 514.475 742.079 634.436 890.059 634.436Z" fill="#FFCC4D"/>
<path d="M1029.02 450.286C1026.37 447.89 1022.41 447.741 1019.56 449.854C1018.98 450.286 961.182 493.023 890.059 493.023C819.114 493.023 761.119 450.286 760.554 449.854C757.711 447.741 753.751 447.919 751.101 450.286C748.467 452.668 747.871 456.598 749.702 459.634C751.622 462.835 797.589 537.68 890.059 537.68C982.528 537.68 1028.51 462.835 1030.42 459.634C1032.25 456.583 1031.67 452.668 1029.02 450.286Z" fill="#664500"/>
<path d="M890.058 494.377C887.855 494.377 885.727 494.214 883.539 494.139V561.363H896.564V494.124C894.405 494.199 892.262 494.377 890.058 494.377Z" fill="#65471B"/>
<path d="M949.601 485.58C949.839 485.52 928.017 491.207 913.191 492.814C907.743 493.44 902.22 493.946 896.564 494.139V561.378H919.83C936.204 561.378 949.601 547.981 949.601 531.606V485.58ZM830.516 485.58C830.278 485.52 852.1 491.207 866.926 492.814C872.374 493.44 877.897 493.946 883.554 494.139V561.378H860.287C843.913 561.378 830.516 547.981 830.516 531.606V485.58Z" fill="white"/>
<path d="M1029.02 450.286C1026.37 447.89 1022.41 447.741 1019.56 449.854C1019.12 450.182 985.937 474.684 939.017 486.622C932.423 488.304 911.271 493.023 890.103 493.038C868.906 493.038 847.694 488.304 841.1 486.622C794.18 474.684 761 450.182 760.553 449.854C757.725 447.741 753.751 447.89 751.101 450.286C748.451 452.668 747.871 456.583 749.702 459.634C751.146 462.046 777.761 505.289 830.516 526.337V499.111C830.278 499.052 852.1 504.738 866.926 506.345C872.374 506.971 877.897 507.477 883.553 507.67C885.727 507.745 887.855 507.908 890.058 507.908C892.262 507.908 894.39 507.745 896.578 507.67C902.235 507.477 907.758 506.986 913.206 506.345C928.032 504.738 949.854 499.052 949.616 499.111V526.337C1002.37 505.289 1028.99 462.046 1030.43 459.634C1032.25 456.583 1031.67 452.668 1029.02 450.286ZM1018.43 307.31C1018.43 332.824 1004.47 353.515 987.232 353.515C970.009 353.515 956.032 332.824 956.032 307.31C956.032 281.796 969.994 261.105 987.232 261.105C1004.47 261.105 1018.43 281.796 1018.43 307.31ZM762.89 307.31C762.89 332.824 776.853 353.515 794.091 353.515C811.313 353.515 825.291 332.824 825.291 307.31C825.291 281.796 811.328 261.105 794.091 261.105C776.853 261.105 762.89 281.796 762.89 307.31Z" fill="#65471B"/>
<path d="M1140.26 241.857C1137.71 239.386 1121.4 245.936 1104.89 237.526C1070.83 220.169 984.761 203.423 928.732 243.123C922.733 247.365 897.665 248.08 890.654 247.782C883.643 248.095 858.576 247.38 852.577 243.123C796.562 203.423 710.493 220.169 676.435 237.526C659.927 245.936 643.612 239.386 641.067 241.857C637.39 245.415 637.39 259.661 641.082 263.233C644.743 266.791 663.068 270.899 666.715 281.572C670.391 292.26 670.421 355.375 699.657 377.198C727.031 397.621 790.891 403.769 831.365 380.74C866.673 360.66 865.438 318.385 871.913 293.198C874.221 284.222 880.726 279.697 890.669 279.697C900.613 279.697 907.118 284.222 909.425 293.198C915.9 318.37 914.65 360.66 949.973 380.74C990.448 403.754 1054.31 397.606 1081.67 377.198C1110.92 355.39 1110.95 292.26 1114.61 281.572C1118.26 270.899 1136.58 266.776 1140.24 263.233C1143.93 259.661 1143.95 245.415 1140.26 241.857ZM839.656 296.19C838.51 312.639 835.577 344.226 815.884 355.435C803.811 362.312 788.077 366.495 771.614 366.495H771.599C753.364 366.495 728.088 361.33 718.204 353.961C705.849 344.747 701.145 306.818 699.374 292.632C698.242 283.597 695.206 261.521 705.149 258.127C720.928 252.754 742.944 248.556 765.466 248.556C775.782 248.556 810.436 249.196 827.316 259.586C842.276 268.771 840.296 287.14 839.656 296.19ZM1081.96 292.424C1080.19 306.625 1075.49 344.747 1063.13 353.961C1053.25 361.33 1027.97 366.495 1009.74 366.495H1009.72C993.246 366.495 977.527 362.312 965.44 355.435C945.746 344.241 942.813 312.847 941.667 296.398C941.042 287.348 939.047 268.845 954.007 259.661C970.903 249.27 1005.54 248.556 1015.86 248.556C1038.38 248.556 1060.38 252.679 1076.17 258.053C1086.12 261.447 1083.1 283.388 1081.96 292.424Z" fill="#292F33"/>
</g>
<g clip-path="url(#clip1_21_23)">
<path d="M654.44 275.191L538.273 215.971C530.286 211.9 527.083 202.034 531.154 194.048C535.226 186.061 545.091 182.858 553.078 186.929L669.245 246.149C677.231 250.221 680.435 260.086 676.363 268.073C672.292 276.059 662.426 279.263 654.44 275.191Z" fill="#292F33"/>
<path d="M531.154 194.048L560.196 208.853L545.391 237.894L516.349 223.089L531.154 194.048ZM647.321 253.268L676.363 268.073L661.558 297.115L632.516 282.31L647.321 253.268Z" fill="#292F33"/>
<path d="M516.349 223.089L545.391 237.894L500.976 325.02L471.934 310.215L516.349 223.089ZM632.516 282.31L661.558 297.115L617.143 384.24L588.101 369.435L632.516 282.31Z" fill="#CCD6DD"/>
<path d="M266.368 498.134C258.382 494.063 255.178 484.197 259.25 476.211L303.665 389.085C307.736 381.099 317.602 377.896 325.588 381.967C333.575 386.038 336.778 395.904 332.707 403.89L288.292 491.016C284.22 499.002 274.355 502.206 266.368 498.134ZM241.828 653.934L227.307 646.532C219.32 642.46 216.117 632.595 220.188 624.608L227.591 610.087C231.662 602.101 241.528 598.898 249.514 602.969L264.035 610.372C272.022 614.443 275.225 624.309 271.154 632.295L263.751 646.816C259.68 654.802 249.814 658.006 241.828 653.934ZM488.683 779.777L474.162 772.375C466.176 768.303 462.972 758.438 467.044 750.451L474.446 735.93C478.518 727.944 488.383 724.741 496.37 728.812L510.891 736.214C518.877 740.286 522.081 750.151 518.009 758.138L510.607 772.659C506.535 780.645 496.67 783.849 488.683 779.777Z" fill="#292F33"/>
<path d="M497.566 762.352L236.19 629.107C220.217 620.964 213.81 601.233 221.953 585.26L377.406 280.321C385.549 264.348 405.28 257.941 421.253 266.084L682.629 399.329C698.602 407.472 705.009 427.203 696.866 443.176L541.413 748.115C533.27 764.088 513.539 770.495 497.566 762.352Z" fill="#4289C1"/>
<path d="M594.083 537.136L361.749 418.696C353.762 414.624 350.559 404.759 354.63 396.772L399.045 309.647C403.117 301.66 412.982 298.457 420.969 302.528L653.303 420.969C661.29 425.04 664.493 434.905 660.422 442.892L616.007 530.017C611.935 538.004 602.07 541.207 594.083 537.136ZM497.85 725.908L265.516 607.467C257.529 603.396 254.326 593.53 258.397 585.544L332.423 440.335C336.494 432.348 346.359 429.145 354.346 433.216L586.681 551.657C594.667 555.728 597.87 565.594 593.799 573.58L519.774 718.789C515.702 726.776 505.837 729.979 497.85 725.908Z" fill="#5DADEC"/>
<path d="M213.982 672.669C222.002 676.758 231.817 673.571 235.905 665.551C239.994 657.531 236.807 647.716 228.787 643.628C220.767 639.539 210.952 642.726 206.864 650.746C202.775 658.766 205.962 668.581 213.982 672.669Z" fill="#292F33"/>
<path d="M475.358 805.915C483.378 810.003 493.194 806.816 497.282 798.796C501.37 790.777 498.183 780.961 490.163 776.873C482.144 772.785 472.328 775.972 468.24 783.991C464.152 792.011 467.339 801.826 475.358 805.915Z" fill="#292F33"/>
<path d="M631.238 446.309L413.424 335.271C409.431 333.236 407.829 328.303 409.865 324.31C411.9 320.316 416.833 318.715 420.826 320.75L638.64 431.788C642.633 433.824 644.235 438.757 642.199 442.75C640.164 446.743 635.231 448.345 631.238 446.309ZM564.615 576.997L346.801 465.96C342.808 463.924 341.206 458.991 343.242 454.998C345.278 451.005 350.21 449.403 354.204 451.439L572.017 562.476C576.011 564.512 577.612 569.445 575.577 573.438C573.541 577.431 568.608 579.033 564.615 576.997Z" fill="#2A6797"/>
<path d="M427.945 342.674L413.424 335.271C409.431 333.236 407.829 328.303 409.865 324.31C411.9 320.316 416.833 318.715 420.826 320.75L435.347 328.153C439.341 330.189 440.942 335.121 438.906 339.115C436.871 343.108 431.938 344.71 427.945 342.674ZM361.322 473.362L346.801 465.96C342.808 463.924 341.206 458.991 343.242 454.998C345.278 451.005 350.21 449.403 354.204 451.439L368.725 458.841C372.718 460.877 374.319 465.81 372.284 469.803C370.248 473.796 365.315 475.398 361.322 473.362Z" fill="#F5F8FA"/>
</g>
<defs>
<clipPath id="clip0_21_23">
<rect width="535.883" height="535.883" fill="white" transform="translate(622.117 98.5534)"/>
</clipPath>
<clipPath id="clip1_21_23">
<rect width="586.76" height="586.76" fill="white" transform="translate(349.785 83.2939) rotate(27.0117)"/>
</clipPath>
</defs>
</svg>
